<?xml version="1.0" encoding="utf-8"?>
<!-- Generator: Adobe Illustrator 21.1.0, SVG Export Plug-In . SVG Version: 6.00 Build 0)  -->
<svg version="1.1" id="Layer_1" xmlns="http://www.w3.org/2000/svg" xmlns:xlink="http://www.w3.org/1999/xlink" x="0px" y="0px"
	 viewBox="0 0 300 300" style="enable-background:new 0 0 300 300;" xml:space="preserve">
<style type="text/css">
	.st0{fill:url(#path5043-0-33-7-8-3-3-2-88_1_);stroke:#C6C4C4;stroke-width:0.25;}
	.st1{fill:url(#path5043-0-6-1-1-0-9-7-3-01_1_);stroke:#C6C4C4;stroke-width:0.25;}
	.st2{fill:url(#path5043-0-6-9-84-1-9-9-4-6-4-4_1_);stroke:#C6C4C4;stroke-width:0.25;}
	.st3{fill:url(#path5043-0-1-94-4-9-0-13-2-6-0_1_);stroke:#C6C4C4;stroke-width:0.25;}
</style>
<linearGradient id="path5043-0-33-7-8-3-3-2-88_1_" gradientUnits="userSpaceOnUse" x1="-2514.8933" y1="905.9791" x2="-2232.1514" y2="623.2371" gradientTransform="matrix(0 -0.353 -0.353 0 370.0817 -737.5843)">
	<stop  offset="0" style="stop-color:#FFFFFF"/>
	<stop  offset="1" style="stop-color:#EBEBEB"/>
</linearGradient>
<path id="path5043-0-33-7-8-3-3-2-88"  class="st0" d="
	M150.1,150.2c0,0-26.5-8.2-34.7,0c-7.2,7.2,7.2,23.2,0,30.4c-7.2,7.2-23.2,7.2-30.4,0c-7.2-7.2,7.2-23.2,0-30.4
	c-8.2-8.2-34.7,0-34.7,0s-8.2-26.5,0-34.7c7.2-7.2,23.2,7.2,30.4,0c7.2-7.2,7.2-23.2,0-30.4c-7.2-7.2-23.2,7.2-30.4,0
	c-8.2-8.2,0-34.7,0-34.7s26.5,8.2,34.7,0c7.2-7.2-7.2-23.2,0-30.4c7.2-7.2,23.2-7.2,30.4,0c7.2,7.2-7.2,23.2,0,30.4
	c8.2,8.2,34.7,0,34.7,0s8.2,26.5,0,34.7c-7.2,7.2-23.2-7.2-30.4,0c-7.2,7.2-7.2,23.2,0,30.4c7.2,7.2,23.2-7.2,30.4,0
	C158.3,123.6,150.1,150.2,150.1,150.2z"/>
<linearGradient id="path5043-0-6-1-1-0-9-7-3-01_1_" gradientUnits="userSpaceOnUse" x1="-2797.6426" y1="905.9818" x2="-2514.8953" y2="623.2344" gradientTransform="matrix(0 -0.353 -0.353 0 370.0817 -737.5843)">
	<stop  offset="0" style="stop-color:#FFFFFF"/>
	<stop  offset="1" style="stop-color:#EBEBEB"/>
</linearGradient>
<path id="path5043-0-6-1-1-0-9-7-3-01" class="st1" d="
	M50.3,250c0,0,8.2-26.5,0-34.7c-7.2-7.2-23.2,7.2-30.4,0c-7.2-7.2-7.2-23.2,0-30.4c7.2-7.2,23.2,7.2,30.4,0c8.2-8.2,0-34.7,0-34.7
	s26.5-8.2,34.7,0c7.2,7.2-7.2,23.2,0,30.4c7.2,7.2,23.2,7.2,30.4,0c7.2-7.2-7.2-23.2,0-30.4c8.2-8.2,34.7,0,34.7,0s-8.2,26.5,0,34.7
	c7.2,7.2,23.2-7.2,30.4,0c7.2,7.2,7.2,23.2,0,30.4c-7.2,7.2-23.2-7.2-30.4,0c-8.2,8.2,0,34.7,0,34.7s-26.5,8.2-34.7,0
	c-7.2-7.2,7.2-23.2,0-30.4c-7.2-7.2-23.2-7.2-30.4,0c-7.2,7.2,7.2,23.2,0,30.4C76.8,258.2,50.3,250,50.3,250z"/>
<linearGradient id="path5043-0-6-9-84-1-9-9-4-6-4-4_1_" gradientUnits="userSpaceOnUse" x1="-2514.895" y1="823.6201" x2="-2232.1482" y2="540.8735" gradientTransform="matrix(0 -0.353 -0.353 0 440.8317 -737.5843)">
	<stop  offset="0" style="stop-color:#FFFFFF"/>
	<stop  offset="1" style="stop-color:#EBEBEB"/>
</linearGradient>
<path id="path5043-0-6-9-84-1-9-9-4-6-4-4" class="st2" d="
	M150.1,150.2c0,0,8.2-26.5,0-34.7c-7.2-7.2-23.2,7.2-30.4,0c-7.2-7.2-7.2-23.2,0-30.4c7.2-7.2,23.2,7.2,30.4,0
	c8.2-8.2,0-34.7,0-34.7s26.5-8.2,34.7,0c7.2,7.2-7.2,23.2,0,30.4c7.2,7.2,23.2,7.2,30.4,0c7.2-7.2-7.2-23.2,0-30.4
	c8.2-8.2,34.7,0,34.7,0s-8.2,26.5,0,34.7c7.2,7.2,23.2-7.2,30.4,0c7.2,7.2,7.2,23.2,0,30.4c-7.2,7.2-23.2-7.2-30.4,0
	c-8.2,8.2,0,34.7,0,34.7s-26.5,8.2-34.7,0c-7.2-7.2,7.2-23.2,0-30.4c-7.2-7.2-23.2-7.2-30.4,0c-7.2,7.2,7.2,23.2,0,30.4
	C176.6,158.4,150.1,150.2,150.1,150.2z"/>
<linearGradient id="path5043-0-1-94-4-9-0-13-2-6-0_1_" gradientUnits="userSpaceOnUse" x1="-2797.4185" y1="823.6185" x2="-2514.6677" y2="540.8677" gradientTransform="matrix(0 -0.353 -0.353 0 440.8317 -737.5843)">
	<stop  offset="0" style="stop-color:#FFFFFF"/>
	<stop  offset="1" style="stop-color:#EBEBEB"/>
</linearGradient>
<path id="path5043-0-1-94-4-9-0-13-2-6-0" class="st3" d="
	M249.9,249.9c0,0-26.5-8.2-34.7,0c-7.2,7.2,7.2,23.2,0,30.4c-7.2,7.2-23.2,7.2-30.4,0c-7.2-7.2,7.2-23.2,0-30.4
	c-8.2-8.2-34.7,0-34.7,0s-8.2-26.5,0-34.7c7.2-7.2,23.2,7.2,30.4,0c7.2-7.2,7.2-23.2,0-30.4c-7.2-7.2-23.2,7.2-30.4,0
	c-8.2-8.2,0-34.7,0-34.7s26.5,8.2,34.7,0c7.2-7.2-7.2-23.2,0-30.4c7.2-7.2,23.2-7.2,30.4,0c7.2,7.2-7.2,23.2,0,30.4
	c8.2,8.2,34.7,0,34.7,0s8.2,26.5,0,34.7c-7.2,7.2-23.2-7.2-30.4,0c-7.2,7.2-7.2,23.2,0,30.4c7.2,7.2,23.2-7.2,30.4,0
	C258.1,223.4,249.9,249.9,249.9,249.9z"/>
</svg>
