<?xml version="1.0" encoding="utf-8"?>
<!-- Generator: Adobe Illustrator 21.1.0, SVG Export Plug-In . SVG Version: 6.00 Build 0)  -->
<svg version="1.1" id="Layer_1" xmlns="http://www.w3.org/2000/svg" xmlns:xlink="http://www.w3.org/1999/xlink" x="0px" y="0px"
	 viewBox="0 0 930 210" style="enable-background:new 0 0 930 210;" xml:space="preserve">
<style type="text/css">
	.st0{clip-path:url(#SVGID_2_);}
	.st1{fill:#FF931E;}
	.st2{fill:#3FA9F5;}
	.st3{fill:#FF1D25;}
	.st4{fill:#7AC943;}
</style>
<defs>
	<path id="SVGID_1_" d="M924.3,162.8c-1.5-3.7-3.8-6.9-6.7-9.6c-3-2.7-6.6-4.7-10.7-6c-3.4-1-7.2-1.6-11.3-1.6h-62.8v-16.9H887
		c4.1,0,7.8-0.5,11.2-1.6c4.1-1.3,7.7-3.3,10.7-6.1c2.8-2.7,4.9-5.8,6.3-9.3c1.3-3.3,2-6.9,2-10.7c0-3.9-0.7-7.5-2.1-10.8
		c-1.5-3.5-3.7-6.7-6.6-9.3c-2.9-2.7-6.5-4.6-10.5-5.8c-3.3-1-7-1.5-11-1.5h-54.3V63H893c4.1,0,7.9-0.5,11.2-1.5
		c4.2-1.2,7.8-3.2,10.7-6c2.9-2.7,5.2-5.9,6.7-9.5c1.4-3.4,2.1-7.1,2.1-11c0-3.9-0.7-7.6-2.1-11c-1.5-3.6-3.7-6.7-6.6-9.4
		c-3-2.7-6.6-4.7-10.7-6c-3.4-1-7.1-1.5-11.2-1.5h-88.2c-3.2,0-6.3,0.3-9.1,0.8c-3.2,0.6-6.1,1.5-8.8,2.7c-3.1,1.4-5.9,3.3-8.3,5.7
		c-2.4,2.3-4.3,5.1-5.8,8.2c-1.3,2.7-2.2,5.7-2.8,8.9c-0.5,2.8-0.8,5.9-0.8,9.2v110.9c-0.4-0.4-0.8-0.8-1.2-1.1
		c-3-2.8-6.7-4.8-10.8-6.2c-3.5-1.1-7.5-1.7-11.7-1.7H693v-105c0-4.9-0.6-9.4-1.8-13.3c-1.4-4.7-3.8-8.8-6.9-12.2
		c-3-3.3-6.6-5.7-10.7-7.4c-3.8-1.6-8-2.4-12.5-2.4c-4.5,0-8.7,0.8-12.5,2.4c-4,1.7-7.6,4.3-10.6,7.6c-3,3.3-5.2,7.4-6.6,12.1
		c-0.4,1.4-0.7,2.8-1,4.3c-1.6-7.5-5.3-12.4-8.5-15.3C616,10,607.9,7.3,598,7.3h-93.8c-4,0-7.8,0.5-11.1,1.5
		c-4,1.2-7.6,3.2-10.5,5.9c-2.1,1.9-3.8,4-5.1,6.3c-1.4-2.3-3-4.1-4.5-5.5C467,10,458.9,7.3,449,7.3h-93.8c-4,0-7.8,0.5-11.1,1.5
		c-4,1.2-7.6,3.2-10.5,5.9c-2.9,2.7-5.1,5.8-6.6,9.4c-0.7,1.6-1.1,3.2-1.5,4.9c-0.2-0.9-0.4-1.8-0.7-2.6c-1.4-4.7-3.8-8.8-6.9-12.2
		c-3-3.3-6.6-5.7-10.7-7.4c-3.8-1.6-8-2.4-12.5-2.4c-4.5,0-8.7,0.8-12.5,2.4c-4.1,1.7-7.7,4.2-10.7,7.6c-3,3.3-5.2,7.4-6.6,12.1
		c-1.2,3.9-1.7,8.3-1.7,13.2v81.8c0,5.8-0.5,10.7-1.6,14.7c-0.8,3.2-2,5.8-3.4,7.6c-1,1.3-2.4,2.2-4.4,3c-2.9,1.1-6.7,1.6-11.4,1.6
		c-3.6,0-6.7-0.3-9.2-0.9c-1.9-0.5-3.5-1.1-4.7-1.8c-1.2-0.8-2.1-1.6-2.9-2.7c-0.8-1.1-1.5-2.4-2-3.9c-0.7-2.2-1.3-4.8-1.7-7.7
		c-0.4-3.2-0.6-6.8-0.6-10.7V39.7c0-4.8-0.6-9.2-1.8-13.2c-1.4-4.7-3.6-8.7-6.6-12.1c-3-3.4-6.7-5.9-10.8-7.6
		c-3.9-1.6-8.1-2.4-12.7-2.4c-4.5,0-8.7,0.8-12.5,2.4c-4,1.7-7.6,4.3-10.6,7.6c-3,3.3-5.2,7.4-6.6,12.1c-1.2,3.9-1.8,8.3-1.8,13.2
		v14.8c-0.8-3.3-1.8-6.6-3-9.7c-1.7-4.2-3.8-8.1-6.3-11.7c-2.5-3.6-5.5-6.9-8.8-9.9c-3.3-2.9-7-5.5-10.9-7.6
		c-3.9-2.1-8-3.7-12.4-4.9c-4.3-1.2-9.2-2.1-15-2.7C96,7.5,89.8,7.3,83,7.3H40.1C35,7.3,30.5,7.8,26.4,9c-4.9,1.4-9.2,3.8-12.6,7
		c-3.6,3.3-6.2,7.6-7.8,12.7c-1.3,4.2-2,8.7-2,14v127.1c0,4.8,0.6,9.2,1.8,13.1c1.4,4.6,3.7,8.6,6.7,12c3,3.3,6.6,5.9,10.7,7.6
		c3.9,1.6,8.1,2.5,12.6,2.5c4.5,0,8.7-0.9,12.5-2.5c3.9-1.7,7.4-4.2,10.4-7.5c3.1-3.4,5.4-7.4,6.8-12c1.2-4,1.9-8.4,1.9-13.3v-31.7
		H83c11.6,0,22-1.3,31-3.8c9.7-2.7,18.1-7,24.9-12.7c7-5.9,12.4-13.3,15.9-21.9c1.3-3.2,2.3-6.5,3.1-10V119c0,6.8,0.4,13.3,1.1,19.2
		c0.8,6.2,2,11.9,3.6,17.2c1.7,5.6,3.9,10.7,6.6,15.4c2.8,4.8,6.1,9.2,9.9,13c3.8,3.8,8.2,7.1,13.1,9.9c4.7,2.7,9.9,4.9,15.6,6.6
		c5.3,1.6,11.2,2.8,17.5,3.6c6,0.8,12.6,1.1,19.6,1.1c6,0,11.7-0.4,17-1.1c5.5-0.8,10.7-1.9,15.5-3.4c5-1.6,9.7-3.7,14.1-6.3
		c4.4-2.6,8.6-5.7,12.4-9.2c4.4-4.1,8.2-8.7,11.3-13.6c0.3-0.5,0.7-1.1,1-1.6c0.1,4.5,0.9,8.7,2.5,12.6c1.8,4.3,4.5,8,8,11.1
		c3.5,3.1,7.7,5.4,12.5,6.8c4.1,1.2,8.8,1.8,13.8,1.8H460c4,0,7.8-0.5,11.1-1.5c3.2-0.9,6-2.3,8.5-4.2c2.6,1.6,5.4,2.9,8.5,3.8
		c4.1,1.2,8.8,1.8,13.8,1.8H609c4,0,7.8-0.5,11.1-1.5c4.1-1.2,7.7-3.2,10.6-5.9c1.9-1.7,3.5-3.7,4.8-5.8c1,1.4,2,2.7,3.2,3.9
		c3.3,3.4,7.6,5.9,12.6,7.4c4.1,1.3,8.6,1.9,13.8,1.9h80.6c4.2,0,8.1-0.5,11.6-1.6c4.2-1.3,7.8-3.3,10.8-5.9c2.5-2.2,4.5-4.7,6-7.5
		c1.2,2.1,2.7,4.1,4.4,5.8c3.3,3.4,7.6,5.9,12.6,7.4c4.1,1.3,8.6,1.9,13.8,1.9h90.8c4.1,0,7.9-0.5,11.3-1.6c4.1-1.3,7.7-3.3,10.7-6
		c2.9-2.7,5.2-5.9,6.7-9.5c1.4-3.4,2.2-7.2,2.2-11.1C926.5,170,925.7,166.2,924.3,162.8z M95.4,76.6c-0.2,0.7-0.4,1.2-0.7,1.7
		c-0.4,0.5-0.8,0.9-1.4,1.3c-0.8,0.5-1.9,1-3.1,1.4c-1.8,0.6-3.9,1-6.3,1.3c-2.7,0.3-5.7,0.5-9,0.5h-7.5V62.3h7.5
		c6.2,0,11.3,0.5,15,1.4c2.5,0.6,3.6,1.3,3.9,1.5c0.6,0.7,1.1,1.5,1.4,2.4c0.5,1.3,0.7,2.9,0.7,4.8C95.9,74.1,95.7,75.5,95.4,76.6z
		 M331.8,139c-0.7,0.8-1.4,1.6-2.2,2.6c-0.8,0.9-1.7,2-2.6,3c-1,1.2-1.9,2.3-2.7,3.2c-0.2,0.2-0.3,0.4-0.5,0.6
		c0.7-3.2,1.2-6.5,1.6-10c0.7-5.9,1-12.5,1-19.5v-74c0.1,0.4,0.3,0.8,0.5,1.1c1.5,3.5,3.8,6.6,6.8,9.2c2.9,2.5,6.4,4.4,10.4,5.6
		c3.3,1,7,1.4,10.9,1.4h40.7L331.8,139z M480.8,139c-0.7,0.8-1.4,1.6-2.2,2.6c-0.8,0.9-1.7,2-2.6,3c-1,1.2-1.9,2.3-2.7,3.2
		c-0.3,0.4-0.6,0.8-0.9,1.1c-0.6-0.2-1.2-0.4-1.7-0.5c-3.2-0.9-6.8-1.3-10.8-1.3h-55.1l58.4-69.6c3.2-3.7,5.9-7,8-9.7
		c2.4-3,4.2-5.5,5.5-7.6c1.4-2.2,2.6-4.7,3.4-7.4c0.8,0.9,1.6,1.7,2.5,2.5c2.9,2.5,6.4,4.4,10.4,5.6c3.3,1,7,1.4,10.9,1.4h40.7
		L480.8,139z M619.8,148.4c-3.2-0.9-6.8-1.3-10.8-1.3h-55.1l58.4-69.6c3.2-3.7,5.9-7,8-9.7c2.4-3,4.2-5.5,5.5-7.6
		c1.6-2.5,2.8-5.4,3.7-8.5v101.6C626.8,151.1,623.5,149.4,619.8,148.4z"/>
</defs>
<clipPath id="SVGID_2_">
	<use xlink:href="#SVGID_1_"  style="overflow:visible;"/>
</clipPath>
<g class="st0">
	
		<path id="path5043-0-6-1-1-0-9-7-3-0-6" class="st1" d="
		M-15.7,111c0,0,8.2-26.5,0-34.7c-7.2-7.2-23.2,7.2-30.4,0c-7.2-7.2-7.2-23.2,0-30.4c7.2-7.2,23.2,7.2,30.4,0c8.2-8.2,0-34.7,0-34.7
		S10.9,3,19,11.2c7.2,7.2-7.2,23.2,0,30.4c7.2,7.2,23.2,7.2,30.4,0c7.2-7.2-7.2-23.2,0-30.4c8.2-8.2,34.7,0,34.7,0s-8.2,26.5,0,34.7
		c7.2,7.2,23.2-7.2,30.4,0c7.2,7.2,7.2,23.2,0,30.4c-7.2,7.2-23.2-7.2-30.4,0c-8.2,8.2,0,34.7,0,34.7s-26.5,8.2-34.7,0
		c-7.2-7.2,7.2-23.2,0-30.4c-7.2-7.2-23.2-7.2-30.4,0c-7.2,7.2,7.2,23.2,0,30.4C10.9,119.2-15.7,111-15.7,111z"/>
	
		<path id="path5043-0-6-1-1-0-9-7-3-3-6" class="st2" d="
		M183.9,111c0,0,8.2-26.5,0-34.7c-7.2-7.2-23.2,7.2-30.4,0c-7.2-7.2-7.2-23.2,0-30.4c7.2-7.2,23.2,7.2,30.4,0c8.2-8.2,0-34.7,0-34.7
		s26.5-8.2,34.7,0c7.2,7.2-7.2,23.2,0,30.4c7.2,7.2,23.2,7.2,30.4,0c7.2-7.2-7.2-23.2,0-30.4c8.2-8.2,34.7,0,34.7,0
		s-8.2,26.5,0,34.7c7.2,7.2,23.2-7.2,30.4,0c7.2,7.2,7.2,23.2,0,30.4c-7.2,7.2-23.2-7.2-30.4,0c-8.2,8.2,0,34.7,0,34.7
		s-26.5,8.2-34.7,0c-7.2-7.2,7.2-23.2,0-30.4c-7.2-7.2-23.2-7.2-30.4,0c-7.2,7.2,7.2,23.2,0,30.4C210.5,119.2,183.9,111,183.9,111z"
		/>
	
		<path id="path5043-0-1-94-4-9-0-13-2-0-7" class="st3" d="
		M183.9,111c0,0-26.5-8.2-34.7,0c-7.2,7.2,7.2,23.2,0,30.4c-7.2,7.2-23.2,7.2-30.4,0c-7.2-7.2,7.2-23.2,0-30.4
		c-8.2-8.2-34.7,0-34.7,0s-8.2-26.5,0-34.7c7.2-7.2,23.2,7.2,30.4,0c7.2-7.2,7.2-23.2,0-30.4c-7.2-7.2-23.2,7.2-30.4,0
		c-8.2-8.2,0-34.7,0-34.7s26.5,8.2,34.7,0c7.2-7.2-7.2-23.2,0-30.4c7.2-7.2,23.2-7.2,30.4,0c7.2,7.2-7.2,23.2,0,30.4
		c8.2,8.2,34.7,0,34.7,0s8.2,26.5,0,34.7c-7.2,7.2-23.2-7.2-30.4,0c-7.2,7.2-7.2,23.2,0,30.4c7.2,7.2,23.2-7.2,30.4,0
		C192.1,84.5,183.9,111,183.9,111z"/>
	
		<path id="path5043-0-6-1-1-0-9-7-3-0-6_1_" class="st1" d="
		M383.3,111c0,0,8.2-26.5,0-34.7c-7.2-7.2-23.2,7.2-30.4,0c-7.2-7.2-7.2-23.2,0-30.4c7.2-7.2,23.2,7.2,30.4,0c8.2-8.2,0-34.7,0-34.7
		s26.5-8.2,34.7,0c7.2,7.2-7.2,23.2,0,30.4c7.2,7.2,23.2,7.2,30.4,0c7.2-7.2-7.2-23.2,0-30.4c8.2-8.2,34.7,0,34.7,0
		s-8.2,26.5,0,34.7c7.2,7.2,23.2-7.2,30.4,0c7.2,7.2,7.2,23.2,0,30.4c-7.2,7.2-23.2-7.2-30.4,0c-8.2,8.2,0,34.7,0,34.7
		s-26.5,8.2-34.7,0c-7.2-7.2,7.2-23.2,0-30.4c-7.2-7.2-23.2-7.2-30.4,0c-7.2,7.2,7.2,23.2,0,30.4C409.9,119.2,383.3,111,383.3,111z"
		/>
	
		<path id="path5043-0-1-94-4-9-0-13-2-6-0_1_" class="st4" d="
		M383.3,111c0,0-26.5-8.2-34.7,0c-7.2,7.2,7.2,23.2,0,30.4c-7.2,7.2-23.2,7.2-30.4,0c-7.2-7.2,7.2-23.2,0-30.4
		c-8.2-8.2-34.7,0-34.7,0s-8.2-26.5,0-34.7c7.2-7.2,23.2,7.2,30.4,0c7.2-7.2,7.2-23.2,0-30.4c-7.2-7.2-23.2,7.2-30.4,0
		c-8.2-8.2,0-34.7,0-34.7s26.5,8.2,34.7,0c7.2-7.2-7.2-23.2,0-30.4c7.2-7.2,23.2-7.2,30.4,0c7.2,7.2-7.2,23.2,0,30.4
		c8.2,8.2,34.7,0,34.7,0s8.2,26.5,0,34.7c-7.2,7.2-23.2-7.2-30.4,0c-7.2,7.2-7.2,23.2,0,30.4c7.2,7.2,23.2-7.2,30.4,0
		C391.5,84.5,383.3,111,383.3,111z"/>
	
		<path id="path5043-0-6-1-1-0-9-7-3-3-6_1_" class="st2" d="
		M582.9,111c0,0,8.2-26.5,0-34.7c-7.2-7.2-23.2,7.2-30.4,0c-7.2-7.2-7.2-23.2,0-30.4c7.2-7.2,23.2,7.2,30.4,0c8.2-8.2,0-34.7,0-34.7
		s26.5-8.2,34.7,0c7.2,7.2-7.2,23.2,0,30.4c7.2,7.2,23.2,7.2,30.4,0c7.2-7.2-7.2-23.2,0-30.4c8.2-8.2,34.7,0,34.7,0
		s-8.2,26.5,0,34.7c7.2,7.2,23.2-7.2,30.4,0c7.2,7.2,7.2,23.2,0,30.4c-7.2,7.2-23.2-7.2-30.4,0c-8.2,8.2,0,34.7,0,34.7
		s-26.5,8.2-34.7,0c-7.2-7.2,7.2-23.2,0-30.4c-7.2-7.2-23.2-7.2-30.4,0c-7.2,7.2,7.2,23.2,0,30.4C609.5,119.2,582.9,111,582.9,111z"
		/>
	
		<path id="path5043-0-1-94-4-9-0-13-2-0-7_1_" class="st3" d="
		M582.9,111c0,0-26.5-8.2-34.7,0c-7.2,7.2,7.2,23.2,0,30.4c-7.2,7.2-23.2,7.2-30.4,0c-7.2-7.2,7.2-23.2,0-30.4
		c-8.2-8.2-34.7,0-34.7,0s-8.2-26.5,0-34.7c7.2-7.2,23.2,7.2,30.4,0c7.2-7.2,7.2-23.2,0-30.4c-7.2-7.2-23.2,7.2-30.4,0
		c-8.2-8.2,0-34.7,0-34.7s26.5,8.2,34.7,0c7.2-7.2-7.2-23.2,0-30.4c7.2-7.2,23.2-7.2,30.4,0c7.2,7.2-7.2,23.2,0,30.4
		c8.2,8.2,34.7,0,34.7,0s8.2,26.5,0,34.7c-7.2,7.2-23.2-7.2-30.4,0c-7.2,7.2-7.2,23.2,0,30.4c7.2,7.2,23.2-7.2,30.4,0
		C591.1,84.5,582.9,111,582.9,111z"/>
	
		<path id="path5043-0-33-7-8-3-3-2-6-6_3_" class="st2" d="
		M84.1,210.2c0,0-26.5-8.2-34.7,0c-7.2,7.2,7.2,23.2,0,30.4c-7.2,7.2-23.2,7.2-30.4,0c-7.2-7.2,7.2-23.2,0-30.4
		c-8.2-8.2-34.7,0-34.7,0s-8.2-26.5,0-34.7c7.2-7.2,23.2,7.2,30.4,0c7.2-7.2,7.2-23.2,0-30.4c-7.2-7.2-23.2,7.2-30.4,0
		c-8.2-8.2,0-34.7,0-34.7s26.5,8.2,34.7,0c7.2-7.2-7.2-23.2,0-30.4c7.2-7.2,23.2-7.2,30.4,0c7.2,7.2-7.2,23.2,0,30.4
		c8.2,8.2,34.7,0,34.7,0s8.2,26.5,0,34.7c-7.2,7.2-23.2-7.2-30.4,0c-7.2,7.2-7.2,23.2,0,30.4c7.2,7.2,23.2-7.2,30.4,0
		C92.3,183.6,84.1,210.2,84.1,210.2z"/>
	
		<path id="path5043-0-33-7-8-3-3-2-8-1_3_" class="st1" d="
		M283.8,210.2c0,0-26.5-8.2-34.7,0c-7.2,7.2,7.2,23.2,0,30.4c-7.2,7.2-23.2,7.2-30.4,0c-7.2-7.2,7.2-23.2,0-30.4
		c-8.2-8.2-34.7,0-34.7,0s-8.2-26.5,0-34.7c7.2-7.2,23.2,7.2,30.4,0c7.2-7.2,7.2-23.2,0-30.4c-7.2-7.2-23.2,7.2-30.4,0
		c-8.2-8.2,0-34.7,0-34.7s26.5,8.2,34.7,0c7.2-7.2-7.2-23.2,0-30.4c7.2-7.2,23.2-7.2,30.4,0c7.2,7.2-7.2,23.2,0,30.4
		c8.2,8.2,34.7,0,34.7,0s8.2,26.5,0,34.7c-7.2,7.2-23.2-7.2-30.4,0c-7.2,7.2-7.2,23.2,0,30.4c7.2,7.2,23.2-7.2,30.4,0
		C291.9,183.6,283.8,210.2,283.8,210.2z"/>
	
		<path id="path5043-0-6-9-84-1-9-9-4-6-6-5_3_" class="st4" d="
		M84.1,210.2c0,0,8.2-26.5,0-34.7c-7.2-7.2-23.2,7.2-30.4,0c-7.2-7.2-7.2-23.2,0-30.4c7.2-7.2,23.2,7.2,30.4,0
		c8.2-8.2,0-34.7,0-34.7s26.5-8.2,34.7,0c7.2,7.2-7.2,23.2,0,30.4c7.2,7.2,23.2,7.2,30.4,0c7.2-7.2-7.2-23.2,0-30.4
		c8.2-8.2,34.7,0,34.7,0s-8.2,26.5,0,34.7c7.2,7.2,23.2-7.2,30.4,0c7.2,7.2,7.2,23.2,0,30.4c-7.2,7.2-23.2-7.2-30.4,0
		c-8.2,8.2,0,34.7,0,34.7s-26.5,8.2-34.7,0c-7.2-7.2,7.2-23.2,0-30.4c-7.2-7.2-23.2-7.2-30.4,0c-7.2,7.2,7.2,23.2,0,30.4
		C110.7,218.4,84.1,210.2,84.1,210.2z"/>
	
		<path id="path5043-0-33-7-8-3-3-2-6-6_2_" class="st2" d="
		M483.1,210.2c0,0-26.5-8.2-34.7,0c-7.2,7.2,7.2,23.2,0,30.4c-7.2,7.2-23.2,7.2-30.4,0c-7.2-7.2,7.2-23.2,0-30.4
		c-8.2-8.2-34.7,0-34.7,0s-8.2-26.5,0-34.7c7.2-7.2,23.2,7.2,30.4,0c7.2-7.2,7.2-23.2,0-30.4c-7.2-7.2-23.2,7.2-30.4,0
		c-8.2-8.2,0-34.7,0-34.7s26.5,8.2,34.7,0c7.2-7.2-7.2-23.2,0-30.4c7.2-7.2,23.2-7.2,30.4,0c7.2,7.2-7.2,23.2,0,30.4
		c8.2,8.2,34.7,0,34.7,0s8.2,26.5,0,34.7c-7.2,7.2-23.2-7.2-30.4,0c-7.2,7.2-7.2,23.2,0,30.4c7.2,7.2,23.2-7.2,30.4,0
		C491.3,183.6,483.1,210.2,483.1,210.2z"/>
	
		<path id="path5043-0-6-9-84-1-9-9-4-6-4-4_2_" class="st3" d="
		M283.5,210.2c0,0,8.2-26.5,0-34.7c-7.2-7.2-23.2,7.2-30.4,0c-7.2-7.2-7.2-23.2,0-30.4c7.2-7.2,23.2,7.2,30.4,0
		c8.2-8.2,0-34.7,0-34.7s26.5-8.2,34.7,0c7.2,7.2-7.2,23.2,0,30.4c7.2,7.2,23.2,7.2,30.4,0c7.2-7.2-7.2-23.2,0-30.4
		c8.2-8.2,34.7,0,34.7,0s-8.2,26.5,0,34.7c7.2,7.2,23.2-7.2,30.4,0c7.2,7.2,7.2,23.2,0,30.4c-7.2,7.2-23.2-7.2-30.4,0
		c-8.2,8.2,0,34.7,0,34.7s-26.5,8.2-34.7,0c-7.2-7.2,7.2-23.2,0-30.4c-7.2-7.2-23.2-7.2-30.4,0c-7.2,7.2,7.2,23.2,0,30.4
		C310,218.4,283.5,210.2,283.5,210.2z"/>
	
		<path id="path5043-0-33-7-8-3-3-2-8-1_2_" class="st1" d="
		M682.8,210.2c0,0-26.5-8.2-34.7,0c-7.2,7.2,7.2,23.2,0,30.4c-7.2,7.2-23.2,7.2-30.4,0c-7.2-7.2,7.2-23.2,0-30.4
		c-8.2-8.2-34.7,0-34.7,0s-8.2-26.5,0-34.7c7.2-7.2,23.2,7.2,30.4,0c7.2-7.2,7.2-23.2,0-30.4c-7.2-7.2-23.2,7.2-30.4,0
		c-8.2-8.2,0-34.7,0-34.7s26.5,8.2,34.7,0c7.2-7.2-7.2-23.2,0-30.4c7.2-7.2,23.2-7.2,30.4,0c7.2,7.2-7.2,23.2,0,30.4
		c8.2,8.2,34.7,0,34.7,0s8.2,26.5,0,34.7c-7.2,7.2-23.2-7.2-30.4,0c-7.2,7.2-7.2,23.2,0,30.4c7.2,7.2,23.2-7.2,30.4,0
		C690.9,183.6,682.8,210.2,682.8,210.2z"/>
	
		<path id="path5043-0-6-9-84-1-9-9-4-6-6-5_2_" class="st4" d="
		M483.1,210.2c0,0,8.2-26.5,0-34.7c-7.2-7.2-23.2,7.2-30.4,0c-7.2-7.2-7.2-23.2,0-30.4c7.2-7.2,23.2,7.2,30.4,0
		c8.2-8.2,0-34.7,0-34.7s26.5-8.2,34.7,0c7.2,7.2-7.2,23.2,0,30.4c7.2,7.2,23.2,7.2,30.4,0c7.2-7.2-7.2-23.2,0-30.4
		c8.2-8.2,34.7,0,34.7,0s-8.2,26.5,0,34.7c7.2,7.2,23.2-7.2,30.4,0c7.2,7.2,7.2,23.2,0,30.4c-7.2,7.2-23.2-7.2-30.4,0
		c-8.2,8.2,0,34.7,0,34.7s-26.5,8.2-34.7,0c-7.2-7.2,7.2-23.2,0-30.4c-7.2-7.2-23.2-7.2-30.4,0c-7.2,7.2,7.2,23.2,0,30.4
		C509.7,218.4,483.1,210.2,483.1,210.2z"/>
	
		<path id="path5043-0-6-1-1-0-9-7-3-0-6_5_" class="st1" d="
		M782.3,111c0,0,8.2-26.5,0-34.7c-7.2-7.2-23.2,7.2-30.4,0c-7.2-7.2-7.2-23.2,0-30.4c7.2-7.2,23.2,7.2,30.4,0c8.2-8.2,0-34.7,0-34.7
		s26.5-8.2,34.7,0c7.2,7.2-7.2,23.2,0,30.4c7.2,7.2,23.2,7.2,30.4,0c7.2-7.2-7.2-23.2,0-30.4c8.2-8.2,34.7,0,34.7,0
		s-8.2,26.5,0,34.7c7.2,7.2,23.2-7.2,30.4,0c7.2,7.2,7.2,23.2,0,30.4c-7.2,7.2-23.2-7.2-30.4,0c-8.2,8.2,0,34.7,0,34.7
		s-26.5,8.2-34.7,0c-7.2-7.2,7.2-23.2,0-30.4c-7.2-7.2-23.2-7.2-30.4,0c-7.2,7.2,7.2,23.2,0,30.4C808.9,119.2,782.3,111,782.3,111z"
		/>
	
		<path id="path5043-0-1-94-4-9-0-13-2-6-0_5_" class="st4" d="
		M782.3,111c0,0-26.5-8.2-34.7,0c-7.2,7.2,7.2,23.2,0,30.4c-7.2,7.2-23.2,7.2-30.4,0c-7.2-7.2,7.2-23.2,0-30.4
		c-8.2-8.2-34.7,0-34.7,0s-8.2-26.5,0-34.7c7.2-7.2,23.2,7.2,30.4,0c7.2-7.2,7.2-23.2,0-30.4c-7.2-7.2-23.2,7.2-30.4,0
		c-8.2-8.2,0-34.7,0-34.7s26.5,8.2,34.7,0c7.2-7.2-7.2-23.2,0-30.4c7.2-7.2,23.2-7.2,30.4,0c7.2,7.2-7.2,23.2,0,30.4
		c8.2,8.2,34.7,0,34.7,0s8.2,26.5,0,34.7c-7.2,7.2-23.2-7.2-30.4,0c-7.2,7.2-7.2,23.2,0,30.4c7.2,7.2,23.2-7.2,30.4,0
		C790.5,84.5,782.3,111,782.3,111z"/>
	
		<path id="path5043-0-1-94-4-9-0-13-2-0-7_5_" class="st3" d="
		M981.9,111c0,0-26.5-8.2-34.7,0c-7.2,7.2,7.2,23.2,0,30.4c-7.2,7.2-23.2,7.2-30.4,0c-7.2-7.2,7.2-23.2,0-30.4
		c-8.2-8.2-34.7,0-34.7,0s-8.2-26.5,0-34.7c7.2-7.2,23.2,7.2,30.4,0c7.2-7.2,7.2-23.2,0-30.4c-7.2-7.2-23.2,7.2-30.4,0
		c-8.2-8.2,0-34.7,0-34.7s26.5,8.2,34.7,0c7.2-7.2-7.2-23.2,0-30.4c7.2-7.2,23.2-7.2,30.4,0c7.2,7.2-7.2,23.2,0,30.4
		c8.2,8.2,34.7,0,34.7,0s8.2,26.5,0,34.7c-7.2,7.2-23.2-7.2-30.4,0c-7.2,7.2-7.2,23.2,0,30.4c7.2,7.2,23.2-7.2,30.4,0
		C990.1,84.5,981.9,111,981.9,111z"/>
	
		<path id="path5043-0-33-7-8-3-3-2-6-6_4_" class="st2" d="
		M882.1,210.2c0,0-26.5-8.2-34.7,0c-7.2,7.2,7.2,23.2,0,30.4c-7.2,7.2-23.2,7.2-30.4,0c-7.2-7.2,7.2-23.2,0-30.4
		c-8.2-8.2-34.7,0-34.7,0s-8.2-26.5,0-34.7c7.2-7.2,23.2,7.2,30.4,0c7.2-7.2,7.2-23.2,0-30.4c-7.2-7.2-23.2,7.2-30.4,0
		c-8.2-8.2,0-34.7,0-34.7s26.5,8.2,34.7,0c7.2-7.2-7.2-23.2,0-30.4c7.2-7.2,23.2-7.2,30.4,0c7.2,7.2-7.2,23.2,0,30.4
		c8.2,8.2,34.7,0,34.7,0s8.2,26.5,0,34.7c-7.2,7.2-23.2-7.2-30.4,0c-7.2,7.2-7.2,23.2,0,30.4c7.2,7.2,23.2-7.2,30.4,0
		C890.3,183.6,882.1,210.2,882.1,210.2z"/>
	
		<path id="path5043-0-6-9-84-1-9-9-4-6-4-4_4_" class="st3" d="
		M682.5,210.2c0,0,8.2-26.5,0-34.7c-7.2-7.2-23.2,7.2-30.4,0c-7.2-7.2-7.2-23.2,0-30.4c7.2-7.2,23.2,7.2,30.4,0
		c8.2-8.2,0-34.7,0-34.7s26.5-8.2,34.7,0c7.2,7.2-7.2,23.2,0,30.4c7.2,7.2,23.2,7.2,30.4,0c7.2-7.2-7.2-23.2,0-30.4
		c8.2-8.2,34.7,0,34.7,0s-8.2,26.5,0,34.7c7.2,7.2,23.2-7.2,30.4,0c7.2,7.2,7.2,23.2,0,30.4c-7.2,7.2-23.2-7.2-30.4,0
		c-8.2,8.2,0,34.7,0,34.7s-26.5,8.2-34.7,0c-7.2-7.2,7.2-23.2,0-30.4c-7.2-7.2-23.2-7.2-30.4,0c-7.2,7.2,7.2,23.2,0,30.4
		C709,218.4,682.5,210.2,682.5,210.2z"/>
	
		<path id="path5043-0-6-9-84-1-9-9-4-6-6-5_4_" class="st4" d="
		M882.1,210.2c0,0,8.2-26.5,0-34.7c-7.2-7.2-23.2,7.2-30.4,0c-7.2-7.2-7.2-23.2,0-30.4c7.2-7.2,23.2,7.2,30.4,0
		c8.2-8.2,0-34.7,0-34.7s26.5-8.2,34.7,0c7.2,7.2-7.2,23.2,0,30.4c7.2,7.2,23.2,7.2,30.4,0c7.2-7.2-7.2-23.2,0-30.4
		c8.2-8.2,34.7,0,34.7,0s-8.2,26.5,0,34.7c7.2,7.2,23.2-7.2,30.4,0c7.2,7.2,7.2,23.2,0,30.4c-7.2,7.2-23.2-7.2-30.4,0
		c-8.2,8.2,0,34.7,0,34.7s-26.5,8.2-34.7,0c-7.2-7.2,7.2-23.2,0-30.4c-7.2-7.2-23.2-7.2-30.4,0c-7.2,7.2,7.2,23.2,0,30.4
		C908.7,218.4,882.1,210.2,882.1,210.2z"/>
</g>
</svg>
