<?xml version="1.0" standalone="no"?>
<!DOCTYPE svg PUBLIC "-//W3C//DTD SVG 20010904//EN"
 "http://www.w3.org/TR/2001/REC-SVG-20010904/DTD/svg10.dtd">
<svg version="1.0" xmlns="http://www.w3.org/2000/svg"
 width="503.000000pt" height="503.000000pt" viewBox="0 0 503.000000 503.000000"
 preserveAspectRatio="xMidYMid meet">
<metadata>
Created by potrace 1.11, written by Peter Selinger 2001-2013
</metadata>
<g transform="translate(0.000000,503.000000) scale(0.100000,-0.100000)"
fill="#000000" stroke="none">
<path d="M1080 5019 c-198 -41 -291 -96 -364 -214 -54 -86 -82 -198 -86 -347
-6 -210 -2 -3927 4 -3973 41 -313 221 -485 505 -485 130 0 231 41 329 133 88
84 143 207 158 354 3 37 6 395 6 795 l1 728 581 1 c319 0 588 2 596 3 8 2 51
6 95 10 362 30 723 149 955 314 355 253 541 666 543 1202 1 387 -95 698 -295
960 -37 48 -163 173 -218 215 -167 128 -390 225 -599 260 -19 3 -37 7 -40 9
-3 2 -51 9 -106 16 -55 6 -111 14 -125 17 -42 11 -1891 12 -1940 2z m1535
-754 c248 -29 462 -101 551 -185 144 -134 215 -319 215 -560 0 -366 -188 -611
-536 -698 -195 -49 -319 -58 -811 -61 l-402 -2 0 762 1 761 466 -5 c256 -4
489 -9 516 -12z"/>
</g>
</svg>
